<svg width="93" height="84" viewBox="0 0 93 84" fill="none" xmlns="http://www.w3.org/2000/svg">
<path d="M46.5186 46.3213C47.9199 46.3213 49.2188 45.6719 50.7227 44.168L80.459 14.7393C79.1943 13.5088 76.8359 12.9277 73.4521 12.9277H18.4229C15.5518 12.9277 13.5352 13.4746 12.4072 14.6025L42.3145 44.168C43.7842 45.6377 45.083 46.3213 46.5186 46.3213ZM9.57031 66.3164L33.7354 42.4248L9.50195 18.5332C8.98926 19.4902 8.71582 21.1309 8.71582 23.4893V61.2236C8.71582 63.6504 8.98926 65.3594 9.57031 66.3164ZM83.3643 66.2822C83.9111 65.291 84.1846 63.6162 84.1846 61.2236V23.4893C84.1846 21.1992 83.9111 19.5586 83.4326 18.6357L59.2676 42.4248L83.3643 66.2822ZM19.4482 71.8193H74.4775C77.3486 71.8193 79.3311 71.2725 80.459 70.1787L55.8154 45.7744L53.5596 48.0645C51.2012 50.3203 48.9795 51.3457 46.5186 51.3457C44.0234 51.3457 41.8018 50.3203 39.4775 48.0645L37.1875 45.7744L12.6123 70.1445C13.9111 71.2725 16.167 71.8193 19.4482 71.8193Z" fill="url(#paint0_linear_752_2508)"/>
<defs>
<linearGradient id="paint0_linear_752_2508" x1="20.5" y1="18" x2="69" y2="67" gradientUnits="userSpaceOnUse">
<stop stop-color="#C8E7C9"/>
<stop offset="1" stop-color="#C8E7C9" stop-opacity="0"/>
</linearGradient>
</defs>
</svg>
