<svg width="19" height="18" viewBox="0 0 19 18" fill="none" xmlns="http://www.w3.org/2000/svg">
<path d="M7.52148 17.8066C8.18555 17.8066 8.70312 17.5527 9.05469 17.0156L18.1562 3.09961C18.4102 2.70898 18.5176 2.34766 18.5176 2.00586C18.5176 1.08789 17.834 0.423828 16.8965 0.423828C16.252 0.423828 15.8516 0.658203 15.4609 1.27344L7.47266 13.8711L3.41992 8.8418C3.05859 8.41211 2.66797 8.2168 2.12109 8.2168C1.17383 8.2168 0.490234 8.89062 0.490234 9.80859C0.490234 10.2188 0.617188 10.5801 0.96875 10.9805L6.00781 17.084C6.42773 17.582 6.89648 17.8066 7.52148 17.8066Z" fill="#F5A31B"/>
</svg>
