<svg width="113" height="57" viewBox="0 0 113 57" fill="none" xmlns="http://www.w3.org/2000/svg">
<path d="M56.4737 3.93384C50.4762 3.93384 45.0577 5.4605 40.7849 8.28279L33.5967 8.2894C33.5967 8.2894 35.2927 10.5777 35.8431 12.8851L54.036 26.9949L56.4778 30.6847L58.9434 26.9635L77.178 12.8756C77.7193 10.5529 79.435 8.23444 79.435 8.23444L71.775 8.22906C67.4784 5.42289 62.257 3.93384 56.4729 3.93384H56.4737Z" fill="#000A12"/>
<path d="M67.5973 8.19814C66.3631 8.23325 65.1427 8.4698 63.9832 8.89865C62.5666 9.42362 61.2671 10.2273 60.1598 11.2632C59.0525 12.2992 58.1594 13.5467 57.5322 14.9338C56.9524 16.2046 56.6245 17.5482 56.5203 18.9C56.0938 12.9736 51.2547 8.27212 45.3115 8.14937C48.599 6.72769 52.3762 5.95898 56.47 5.95898C60.5915 5.95898 64.3128 6.70992 67.5973 8.19814Z" fill="#FCC40F"/>
<path d="M44.9411 30.6021C50.6164 30.6021 55.2172 25.9519 55.2172 20.2155C55.2172 14.4792 50.6164 9.82898 44.9411 9.82898C39.2658 9.82898 34.665 14.4792 34.665 20.2155C34.665 25.9519 39.2658 30.6021 44.9411 30.6021Z" fill="white" stroke="#000A12" stroke-width="3.08483"/>
<path d="M44.9407 24.8854C47.4925 24.8854 49.5611 22.7946 49.5611 20.2154C49.5611 17.6361 47.4925 15.5453 44.9407 15.5453C42.3889 15.5453 40.3203 17.6361 40.3203 20.2154C40.3203 22.7946 42.3889 24.8854 44.9407 24.8854Z" stroke="#000A12" stroke-width="2.69178"/>
<path d="M44.9405 22.1443C45.9944 22.1443 46.8487 21.2808 46.8487 20.2155C46.8487 19.1503 45.9944 18.2867 44.9405 18.2867C43.8866 18.2867 43.0322 19.1503 43.0322 20.2155C43.0322 21.2808 43.8866 22.1443 44.9405 22.1443Z" fill="#EF6A45"/>
<path d="M68.0593 30.5814C73.7346 30.5814 78.3353 25.9311 78.3353 20.1948C78.3353 14.4585 73.7346 9.80823 68.0593 9.80823C62.384 9.80823 57.7832 14.4585 57.7832 20.1948C57.7832 25.9311 62.384 30.5814 68.0593 30.5814Z" fill="white" stroke="#000A12" stroke-width="3.08483"/>
<path d="M68.0598 24.8649C70.6116 24.8649 72.6802 22.7741 72.6802 20.1949C72.6802 17.6156 70.6116 15.5248 68.0598 15.5248C65.5081 15.5248 63.4395 17.6156 63.4395 20.1949C63.4395 22.7741 65.5081 24.8649 68.0598 24.8649Z" stroke="#000A12" stroke-width="2.69178"/>
<path d="M68.0596 22.1236C69.1135 22.1236 69.9679 21.26 69.9679 20.1948C69.9679 19.1295 69.1135 18.266 68.0596 18.266C67.0057 18.266 66.1514 19.1295 66.1514 20.1948C66.1514 21.26 67.0057 22.1236 68.0596 22.1236Z" fill="#00B087"/>
<path d="M28.3328 35.1932C27.2893 35.1923 26.7648 36.4668 27.5021 37.212C28.2394 37.9573 29.5013 37.4318 29.5022 36.3771C29.5013 36.0635 29.3777 35.763 29.1585 35.5411C28.9392 35.3191 28.6421 35.1938 28.3318 35.1923L28.3328 35.1932ZM16.2228 36.2498L16.0865 36.2998L14.3132 36.9148V39.2544H12.3457V40.8261H14.2553V45.8636C14.2553 48.2626 15.0645 49.2409 17.0441 49.2409C17.55 49.2409 18.0306 49.1749 18.5141 49.0447L18.5888 49.023L18.5701 47.3985L18.4301 47.4438C18.0437 47.5853 17.7376 47.6513 17.4986 47.6513C16.5718 47.6513 16.2237 47.1202 16.2237 45.692V40.8242H18.4954V39.2544H16.2237V36.2488L16.2228 36.2498ZM36.2708 39.0252C34.9212 39.0252 33.7844 39.6855 33.0274 40.8496V39.2459H31.2261V53.0568H33.1954V47.6985C33.9066 48.6758 34.9268 49.2098 36.1961 49.2098C38.6853 49.2098 40.2906 47.1466 40.2906 43.9599C40.2906 41.0006 38.6788 39.0129 36.2708 39.0129V39.0252ZM24.8589 39.0818C23.7174 39.0818 22.7981 39.7044 22.2213 40.8459V39.2544H20.4228V49.0654H22.3921V44.1411C22.3921 42.0732 23.2508 40.9383 24.8048 40.9383C25.0288 40.9383 25.25 40.9732 25.5141 41.0477L25.641 41.0855L25.7045 39.1478L24.8589 39.0818ZM27.3509 39.2544V49.0654H29.3109V39.2544H27.3509ZM35.7976 40.6695C37.3189 40.6695 38.2308 41.9458 38.2308 44.0845C38.2308 46.2636 37.2694 47.6127 35.7229 47.6127C34.1642 47.6127 33.1954 46.2693 33.1954 44.1033C33.1954 42.0185 34.2165 40.6695 35.7976 40.6695Z" fill="#000A12"/>
<path d="M58.0478 34.5715V40.5874C57.3226 39.5657 56.3137 39.0242 55.0107 39.0242C52.6065 39.0242 50.9918 41.0289 50.9918 44.0071C50.9918 47.0768 52.627 49.2211 54.9743 49.2211C56.365 49.2211 57.4458 48.5985 58.199 47.3891V49.0655H60.019V34.5715H58.0497H58.0478ZM72.8542 35.1942C71.8117 35.1942 71.289 36.4677 72.0254 37.213C72.7618 37.9582 74.0227 37.4318 74.0246 36.3781C74.0236 36.0645 73.9001 35.764 73.6808 35.542C73.4616 35.3201 73.1645 35.1956 72.8542 35.1942ZM46.0395 39.0242C44.8393 39.0242 43.7855 39.2544 42.8167 39.7261L42.7561 39.7544L42.7785 41.4525L42.9306 41.3647C43.8574 40.8412 44.7319 40.5742 45.5309 40.5742C46.9561 40.5742 47.7709 41.4006 47.7709 42.842V42.9251H46.6471C43.4085 42.9251 41.6221 44.1118 41.6221 46.2646C41.6221 47.9928 42.9101 49.2004 44.7525 49.2004C46.1086 49.2004 47.1586 48.6626 47.9053 47.6485V49.0655H49.6851V43.1251C49.6851 40.4053 48.4606 39.0214 46.0405 39.0214L46.0395 39.0242ZM88.7209 39.0242C85.7622 39.0242 83.9235 40.9921 83.9235 44.1628C83.9235 47.3334 85.7622 49.2975 88.7209 49.2975C91.6926 49.2975 93.5397 47.3306 93.5397 44.1628C93.5397 40.9949 91.6917 39.0242 88.7209 39.0242ZM99.8089 39.0808C98.6721 39.0808 97.749 39.7035 97.1703 40.8449V39.2544H95.3737V49.0655H97.343V44.1411C97.343 42.0732 98.1989 40.9383 99.7557 40.9383C99.9797 40.9383 100.199 40.9723 100.463 41.0478L100.59 41.0855L100.655 39.1478L99.8079 39.079L99.8089 39.0808ZM79.7161 39.1412C77.5815 39.1412 76.1479 40.1959 76.1479 41.7704C76.1479 43.1524 77.0869 43.8816 78.8191 44.7326C79.9111 45.2778 80.4842 45.5957 80.4842 46.3608C80.4842 47.1438 79.7795 47.6532 78.6941 47.6532C77.9194 47.6532 77.0663 47.4315 76.2226 47.0136L76.0779 46.94L76.0126 48.6702L76.0807 48.6985C76.8881 49.0221 77.7495 49.1872 78.6175 49.1862C81.0255 49.1862 82.5823 48.024 82.5823 46.2297C82.5823 44.7316 81.5958 43.975 79.8906 43.1703C78.6399 42.5788 78.1154 42.227 78.1154 41.6015C78.1154 41.0072 78.6987 40.6176 79.6087 40.6176C80.4262 40.6178 81.2331 40.8035 81.9701 41.161L82.1101 41.227L82.1997 39.5346L82.1231 39.5044C81.3018 39.2648 80.4991 39.1422 79.7273 39.1422L79.7161 39.1412ZM61.2202 39.2544L65.9783 49.0655L70.869 39.2544H68.811L66.0185 44.9184L63.4387 39.2544H61.2202ZM71.8695 39.2544V49.0655H73.8389V39.2544H71.8677H71.8695ZM88.7395 40.594C90.4009 40.594 91.4742 41.9864 91.4742 44.1411C91.4742 46.2825 90.4009 47.6674 88.7395 47.6674C87.1043 47.6674 86.0049 46.2504 86.0049 44.1411C86.0049 42.0223 87.1034 40.594 88.7395 40.594ZM55.4475 40.6148C57.0762 40.6148 58.0469 41.9232 58.0469 44.1241C58.0469 46.2184 57.0426 47.5768 55.4839 47.5768C53.9859 47.5768 53.0535 46.2523 53.0535 44.1241C53.0535 41.9958 53.9934 40.6148 55.4475 40.6148ZM46.7601 44.326H47.7727V44.926C47.7727 46.6174 46.7666 47.707 45.2061 47.707C44.2559 47.707 43.5895 47.0749 43.5895 46.1674C43.5895 44.9788 44.7161 44.326 46.7601 44.326Z" fill="#00B087"/>
</svg>
